<svg id="_ÎÓÈ_2" data-name="—ÎÓÈ_2" xmlns="http://www.w3.org/2000/svg" viewBox="0 0 1463.28 357.68"><path d="M343.63,888.09a59.49,59.49,0,0,0,1.5,7.52c.69,1.78.69,2.74.41,3.15s-1.64,4.1,1.1,4.92,14.91,1.24,17.78.55c0,0,4.52-1.5,4.79-2.46s.27-1.92-3.28-2.19S355,896.16,355,896.16s-.41-20.79-1.5-24.22c0,0,2.32-6.7,1.91-8.61,0,0-4-13.41-4.79-14.64a8,8,0,0,0,.41-2.88s-.68-9.16-1.77-11.08-1.78-1.23-1.78-1.23,5.06-7.25,6.15-14,3.15-21.89-10.53-35.3l.14-1.64a11.57,11.57,0,0,0,6.7.27s1.64-1,1.92-2l1.5-1.37.68-1.91s3.7-3.28,2.19-5.88c0,0-1.36-3.83.69-5.2a14.25,14.25,0,0,0-2.33-15.19s-8.62-9-20.38-8.21a16.93,16.93,0,0,0-12.45,17.24,36.32,36.32,0,0,0,3.14,9.58s2.88,4.92,1.1,8.48a40.8,40.8,0,0,0-7.8,12.59s-3,7.25-3.15,10c0,0-1.23,3.7,3.43,8.07l3.42,1.92-1,3.56s-5.61.41-7.53,3c0,0-.68,2,.14,2.32,0,0-.14,2.87,1.78,3.56,0,0,.82.14,1-1.23,0,0,5.19.68,6.29-.41l1.09.13-.13,1.1s-5.06.27-7.8,6.57c0,0-6.57,12-1.23,20.79l1.09,1.78L316,860s-.41,4-1.64,4.38c0,0-5.88,1-10.4,8.35,0,0-4.1,7.38-5.47,8.89,0,0-3.42-.28-4.1,3,0,0,.27,1.78.54,4.1a48.76,48.76,0,0,1,.14,7.11s1,4.11,2.46,6.16c0,0,4.11,2.74,7.39,3,0,0,3.42.69,3.56-1a38.1,38.1,0,0,1-1.78-5.33s-1.78-7.25-.27-9.85c0,0,6-9.85,14.5-14.23,0,0,5.47-2,7.39-5.75l3.28-9.3a15.33,15.33,0,0,0,4.79,0s3.83,4.24,5.06,7.25c0,0,1.78,3.56,1.09,4,0,0-2.73,5.2-.13,13.27Z" transform="translate(-294.38 -556.91)" style="fill:#fff"/><path d="M508.69,886.25s10.91,18.08,12.7,19.87c0,0,7.59-.77,10.39,0,0,0,1.68-2-.61-5.06l-3.58-4.85-2.81-4.86s7.41-10,13.54-14l12.26-8.43s6.89-3.06,5.87-9.19l.77-4.35,3.57-.25.26-4.34,2,4.59-.77,1.79,4.09.77h3.32s-4.09,11-3.58,21.71v7.66l-1.53,2s-2,4.09-1.53,6.9l2.3,2.3s23,1.79,26.56,1l4.08-.77a21,21,0,0,0-11.49-10l-8.43-.76s5.89-19.27,5.12-24.64c0,0,2.8-5.5,1.27-10.1h2.55s-1.34-18.27-7.47-24.14l-1.35-3.85,2.69-.61.51-20.18,6.9,1.79s6.9,5.62,7.66,7.92c0,0,3.32,1.79-.51-6.64a7.06,7.06,0,0,1,4.6,6.64s1.53,1.79,1.53-1.53c0,0-1.28-6.13-3.83-7.41a11.36,11.36,0,0,1,7.91,4.85s1.28-.77-.25-4.85a21.61,21.61,0,0,0-9.45-4.85L582.24,793l-3.32-31.92s-3.57-9.71-5.61-12.52l-3.89-3,.14-2.33a11.22,11.22,0,0,0,6.81.46,6.73,6.73,0,0,0,1.79-4.34l1.25-2.41.13-3,3.21-1.48L581,726.63s-.61-4.28,1.58-6.46c0,0,1.34-9.22-4.37-14.67-8.84-8.42-22.74-10.54-29.64-.13-6.78,10.24-2,16.82.27,21.93,0,0,2.88,2.86,5.18,4.65l.8,4.49-1.86,2.69a41.89,41.89,0,0,0-11.14,19.74s-6.54,49-9.09,57.15l-2.3,13s-1.27,1.53,10.47,0c0,0-5.36,14.81-4.34,21.71l4.85,1.53s1.79,2.3-2.55,7.92c0,0-6.9,0-21.2,20.18C517.63,880.38,508.43,878.08,508.69,886.25Z" transform="translate(-294.38 -556.91)" style="fill:#fff"/><path d="M700.25,872.9s3.84,10.94,5.67,12.76c0,0,6.07,1.82,6.47,9.72,0,0,6.89,12.15,15.8,16.6,0,0,4.24-3.85,4.85-6.68,0,0-2.23-8.1-3.84-9.72,0,0,3.84-3.85,4.65-6.28a16.43,16.43,0,0,1,5.87-3.44s10.53-7.9,16-16.4c0,0,8.5-11.14,13.57-15.19,0,0,15.18-18.83,17.41-22.07l7.89-10.32a36.77,36.77,0,0,1,6.69,12.35s1.26,8.66,3.62,13.38c.14.27.28.54.43.79,2.63,4.46,2.22,4.25,4.25,10.13,0,0,3.85,5.46,5.87,7.29s.2,1.82-.2,4.85-2.63,4.26-1,5.88,1.41,4.05,1.41,4.65v4.26l1,14s9.93.81,13,.81c.61,0,3-4,7.7.2,0,0,19-.2,24.5-3.85,0,0-.41-8.5-13.16-8.3l-3.85-8.3s2.23-5.47-1.82-8.51a12.59,12.59,0,0,1-5.47-10.12c0-3.24-3.85-22.88-3.85-25.31s.81-5.67-.81-10.93-3-11.55-5.87-15.39-3.64-3.85-4.65-5.67-2.23-7.9-4.26-8.51-2.22-2.83-2.83-4.85-2.43-6.89-2.43-6.89-.2-9.92.4-13.36,3-11.75,3-11.75,8.1,3.65,10.33,4,7.49-.4,9.11,1.62c0,0,1.21,1.42,2.63-.4s.81.2.81.2,2.84-4.86,2.84-6.48a6,6,0,0,0,1.82-2.83c.2-1.42-.41-5.07-6.28-4.86,0,0-8.91.4-11.95,2.43,0,0-2,.6-3-.81l-4.86-4s4.25-19.64-3-34a33.26,33.26,0,0,0-8.18-11.29l.18-1.06s9,2.65,10.81.71a13.06,13.06,0,0,0,.35-3.53,1.88,1.88,0,0,1,1.42-2.11c.53,0-.36-1.59-1.42-1.94a16,16,0,0,1,3-2.29l-.53-2.12,2.48-2.12a3,3,0,0,0-.71-2.29s-2.48-3.7-.35-5.28c0,0,1.59-6.53-.71-10.76,0,0,1.59-2.64.71-3.7s-.18-2.11-2.84-3.7-3.72-.53-5.67-2.11-5.85-.53-7.79-2.82-6.38-1.06-13.83.7-11.34,11.28-11.34,15.69,6.74,19.92,8.86,21.68l1.24-.18-.71,3.18s-11.63,2.18-12.24,4-12.35,3-13,4.86c0,0-10.13,16-9.52,22.68,0,0,1,15.79,1,23.08,0,0,1,19,17.42,22.48,0,0-2.23,13.76-4.86,29.15,0,0-2.43,15-5.68,19.64,0,0-10.73,7.09-14,10.53s-6.69,7.49-9.93,10.53-9.71,8.3-12.95,12.35-6.88,7.9-8.3,8.31S701.87,870.88,700.25,872.9Z" transform="translate(-294.38 -556.91)" style="fill:#fff"/><path d="M1006.07,875.11s3.41,5.27.93,10.23c0,0-6.82,10.84-.93,16.42,0,0,20.76,1.86,27,1.86,0,0,24.49-.31,26-2.79,0,0,2.78-5.27-7.44-6.81,0,0-12.71-1.24-16.12-6.82,0,0-3.72-8.06-1.55-11.16,0,0,5.27-5.58,4-16.43,0,0-7.13-31.92-5.89-35s1.86-3.41,2.79-5.58,1.24-26,1.24-30.68.93-18,.93-20.46,2.48-.62,2.48-.62-3.1-41.53-2.17-45.56l10.85-.62s7.75,2.17,11.78,1.86c0,0,6.5-3.1,9-4.65,0,0,3.1-2.79,2.79-3.72l-.31-.93,11.16-8a19.28,19.28,0,0,0,.31-5l-14,11.16s.62-4.65-2.17-5c0,0-8.67-3.1-13.32-1.86,0,0-12.4,0-14.57-2.17,0,0-.31-20.77-.62-23.56s6.82-17.35,6.82-17.35-9.61-11.78-13.33-14l-1.86-2.17,1.24-4.34s3.41,0,4.65,1.55c0,0,1.86,4.34,4,4.65,0,0,4-.93,4.34-3.1l1.86-.62,1.24-1.55,1.24-.31.62-1.86,4.65-.31-.31-5.58,1.55-5s1.86,2.79,1.86,5c0,0,2.78.31,3.72-4a73.29,73.29,0,0,1,1.23,7.44s5.89-14.57,3.72-24.17-14.25-26.35-33.78-16.43-14.88,24.49-16.74,34.09l2.48.93-4.33,5.27s-16.43,8.68-19.53,14.26L991.5,656s-20.15,10.22-23.25,16.73c0,0-4,17.67-5,20.77,0,0-6.82,16.12-6.51,23.55s.93,19.84,5.27,24.8,21.69,9.92,25.1,10.85,4.34,10.22,4,17S989,784.61,990.88,789s6.51,12.71,6.51,12.71a10.49,10.49,0,0,1-3.72,10.22s-39,35-44.32,36.58-16.12,4.95-20.15,9S934.78,872,938.81,877s4,16.12,17.05,23.24c0,0,8.06,2.17,8.06-4.65,0-1.23-4.34-13.63-6.51-18,0,0,13.77-8.33,22.62-13.64,1.55-.93,20.46-18.28,22.94-22.31C1003,841.64,1003.28,868.29,1006.07,875.11Z" transform="translate(-294.38 -556.91)" style="fill:#fff"/><path d="M1293.8,704l.59.14S1293.34,703.6,1293.8,704Z" transform="translate(-294.38 -556.91)" style="fill:#fff"/><path d="M1321,896.69s-14-.2-18.18-2.27c0,0-8.47-3.72-11.78-11.78,0,0-6-19.63-6.61-22.11s-6.82-8.68-7.85-9.71-1.45-3.92-1.24-6.4-3.31-8.89-3.72-11.16-3.51-9.3-4.13-11.36,2.27-5.38,1.86-8.68-3.31-15.5-3.31-20.66S1264,756,1264,756l10.54-.62s4.13-.2,4.75-3.3-7.23-38-6.61-42.36l7,6s5.58,1,6.2-1.24,3.1.21,3.72,2.07l4.54,4.34s1.24.62,1.65-1.86l1.24-8.27s1-3.92-1.86-5.78c-.82-.53-1.23-.82-1.41-1l-6.23-1.51v-1.66s-11.36-10.33-18.8-14.66c0,0-10.13-39.47-16.33-47.53,0,0-4.13-11.16-4.54-11.78s-5.17-10.33-5.17-10.33,1-8,1.24-9.09a96.45,96.45,0,0,0,9.92-1.24,4.38,4.38,0,0,0,.41-5.37l-.41-2.07.62-2.89.41-4.54s2.85-.77,3.1-1.66-.62-2.27-1.44-3.1l-.83-.82-3.72-3.1s.41-3.72,0-5l-2.27-6.2s3.51-2.69,1.44-5.58c0,0-12.6-15.49-32.23-5.78,0,0-15.7,9.91-4.54,30.37l6.4,9.71.21,3.52s-2.07,5.58-3.51,6.2c0,0-9.51,2.89-12.2,8.68,0,0-7.43,10.54-8,15.08,0,0-2.07,10.75-2.07,13.85a64.93,64.93,0,0,1-1,8.68,9.86,9.86,0,0,0-1,8.67s.62,7.24.42,8.68-3.1,10.13-2.27,15.29-.21,27.9-.21,27.9l-6.61,34.91,6.82,1.86s-7.65,5.38-8.89,9.1l-21.9-7.86s-3.31.42-4.34,2.9L1136.74,811a4.52,4.52,0,0,0,2.89,5.79l31.61,9.92-5,15.08s-2.68,13.85-4.54,15.91-6.61,8.89-6.61,8.89-3.1,8.05-4.76,11.36-4.75,20.66-4.75,20.66,13.64,5.37,17.15,6c0,0,3.31-3.09,6.2-.41,0,0,4.34,3.31,7.23,3.31l20.66-1.45a40.76,40.76,0,0,0,4.76-3.1c1.44-1.24-1-3.92-2.9-5s-13.84-.62-13.84-.62l-6.82-9.3,2.07-4.13c.41-.82,0-9.5,0-9.5s18-22.73,21.49-34.92l.82-1.65,7.65,3.3s4.75,2.69,7.44-1.24l12.6-31.41,13.64,27.89,18.59,44.42s4.75,6,4.55,8.47-.61,12,0,13.85c.2.62,2.68,5.37,2.68,5.37s33.27,4.13,46.49-1.86l7.85-4.13S1322.9,896.9,1321,896.69Zm-124-127.89-8.47-3.71s0-4.14,3.72-3.72l6.2,3.92Z" transform="translate(-294.38 -556.91)" style="fill:#fff"/><path d="M1447.33,802l7,12.18s2.13,4.57,3,6.7,2.74,7.92,4.26,10,4,7.92,4.88,11,1.52,6.4,3.65,10.05,3.66,11.58,5.79,14,9.44,14.32,10,17.36-2.74,4.57-3,7.61,1.53,7.92,1.53,10.06-.61,10-.61,10,17.36,2.13,18.57,1.21,4-.91,5.18-.91,12.49-2.13,17.36-3.35,14.31-4.57,14.31-4.57,1.22-6.09-.91-7-11.27,0-13.4-.61-4-2.74-5.18-3a25.67,25.67,0,0,1-3.65-1.52s-6.09-4.26-6.7-5.79-2.44-12.18-2.44-12.18l-8.52-35.93-4.27-11.58-1.52-9.44,2.13-6.39-.61-2.14-1.52-8.22-1.83-4.26-1.52-6.4-2.13-12.18-.61-4.87.61-4.88-1.53-6.7.61-4s.31,1.22,2.74,0,3,.92,4,.31,4.57-1.83,4.88-5.18-1.83-5.78-3.66-7.31-8.83-5.17-8.83-5.17l-1.22-5.49s-3.35-7.61-3.35-8.83,5.48-6.09,6.7-11,2.44-19.8-1.83-29.24c0,0,.61-10.35.61-14.92s-5.78-26.19-6.39-28.32l-.61-2.14,4.26-10-2.74-3.65s3.05-6.7,8.53-7.61c0,0,2.43.3,2.13-4l.3-1.83-.91-1.52,1.52-.92,1.22-3.35s1.22-1.52,2.13-.91c0,0,2.44-.61,1.83-3.66l-1.52-3.65.61-1.83.3-5.78a51.44,51.44,0,0,0,10-1.53l1.83-3.35-12.79-4.87s-6.4-8.53-11.57-10.05-11.58-3.65-18.89,0-13.09,11-12.79,20.71,0,11.57.31,14-5.18,6.09-5.18,6.09-10,2.13-18,18.27c0,0-6.09,11.27-7.92,29.54,0,0-.3,21.63-1.22,23.46a77.39,77.39,0,0,0-3.34,11,27.6,27.6,0,0,0,0,10c.6,4,.6,7.92-1.22,10.66s-4.27,4-7.92,12.18,0,24.06.61,32.28a88.86,88.86,0,0,1,0,15.84,68.36,68.36,0,0,1-3.35,15.53c-1.83,5.48-6.09,22.23-7.92,26.19s-8.53,13.4-8.53,16.45-2.43,16.75-2.43,16.75l-2.14,14.92c-.61,4.26-9.74,11.57-9.44,12.49s-.3,10.66-.3,10.66l-4.87,6.69,8.52,7.62s6.09.61,7.92,3.35,16.45,3.65,30.76,2.13c0,0,2.13-4.26-.3-6.7s-12.49-4-14.62-10.66l3.35-8.22s-1.22-5.79.61-9.14,11-13.09,11-13.09S1436.67,829.41,1447.33,802Z" transform="translate(-294.38 -556.91)" style="fill:#fff"/><path d="M1614.79,897.82s-2,5.45-2.22,6.67-1.42,7.88-1.42,7.88l7.68,2h13.74l16,.2,6.06-.2s.81-5.26-.81-6.87-9.29-3.64-9.29-3.64l1.82-13.54L1660.06,859l3.23,26.87,2.63,2.23-.61,5.25-2,3.23s-1.41-1-1.82,2.63-.4,11.32-.4,11.32,28.29-1,28.89-1.21,22.84-.61,22.84-.61l1.62-1.82-1.22-5.25s-12.73-1.62-15.15-3c0,0-6.67-11.11-8.49-12.93,0,0,0-3.64.81-5.25,0,0,5.25-5.46,6.06-8.49s.81-21,1-25.46-2-23-2.22-27.69-5-21-5-23.64,0-6.67.4-8.08.81-14.35.81-14.35,1.62,1.82,2.83-.2-2.43-22-2.43-22l-1.41-12.73,7.27,18.59,23.44,58.6,30.12,77.2-1,1.61,1.82,4.05s4.65,1.61,5.66-1.82l-2.22-4.85-1,.4L1734.22,839l-19.6-51.13-21.22-52.94,1.41-.2a2.51,2.51,0,0,0,2.63.4c1.62-.6,2.22-3.84,2.22-3.84l2.63-1s1.42,2,.61,7.68c0,0,1.41,4,3.64.81,0,0,1.82-8.08-2-13.34,0,0-.41-1.82-4.25-5.45,0,0-.61-2-5.86-1.22l-5.86.41a53.05,53.05,0,0,0-3.43-20.82s-5.46-24.65-9.71-32.13L1670,652.89v-4.64s5.46,1.82,9.5-2.43c0,0,3.43-2.42,2.62-8.89l-.4-1.82-1.21-1.41,1.61-1.42s2.23-3.43,1.22-4.64c0,0,.81.6,2.42-1,0,0,2-1.21.61-5l-2-4.44s0-3.24,1-3.84l-.2-4.85s3.63-.4,3.63-2.43-1-9.29-19.6-14.75a35.76,35.76,0,0,1-6.87-.6,26.9,26.9,0,0,0-10.1-.41c-3.24.61-7.28.81-7.68,3.23a30.37,30.37,0,0,0-.61,6.88c.2,1.41.2,4.64.2,4.64s-2.42,12.53-.8,15.56l1.41,3s-6.27,1-6.27,3-1.81,4.25-1.81,4.25-9.7,1.82-13.95,11.11-6.67,10.91-6.26,24.25a132.37,132.37,0,0,0,3,24.25l2.22,19.81,1.82,32.93s1.62,23.85,1,30.72c0,0,5,5.26,9.5,6.47,0,0,1.82,8.49,1.82,9.09s2.62,6.27,2.22,8.29-3.43,7.47-2.63,10.1,2.43,6.87,2.43,8.69-1.82,4.45-4.45,6.87-3.43,10.31-3.43,13.74a151.4,151.4,0,0,1-2.23,18.39c-.8,3.84-5.25,14.75-5.25,16.37s-5.45,6.06-4.65,9.7,1,8.08.2,10.1A32.72,32.72,0,0,1,1614.79,897.82Z" transform="translate(-294.38 -556.91)" style="fill:#fff"/></svg>