<?xml version="1.0" encoding="utf-8"?>
<!-- Generator: Adobe Illustrator 24.2.3, SVG Export Plug-In . SVG Version: 6.00 Build 0)  -->
<svg version="1.1" id="Layer_1" xmlns="http://www.w3.org/2000/svg" xmlns:xlink="http://www.w3.org/1999/xlink" x="0px" y="0px"
	 viewBox="0 0 24 24" style="enable-background:new 0 0 24 24;" xml:space="preserve">
<style type="text/css">
	.st0{enable-background:new    ;}
</style>
<g class="st0">
	<path d="M0.2,3.7c0-1.5,1.1-2.8,2.6-2.8h0.1c1.5,0,2.8,1.3,2.9,2.8v0.1c0,1.5-1.2,2.6-2.7,2.7h0c-1.5,0-2.7-1.2-2.8-2.7V3.7z
		 M0.2,8.1h5.4v16H0.2L0.2,8.1z M8.1,8.1h5.4v1.6c0.2-0.1,1.4-1.6,4.9-1.7c4.5,0.1,5.1,3.2,5.3,4.8v11.3l-5.5,0V13.4
		c-0.1-0.3-0.8-1.4-2.2-1.4H16c-1.6,0-2.4,1-2.4,1.4v10.7l-5.4,0V8.1z"/>
</g>
</svg>
