<?xml version="1.0" encoding="utf-8"?>
<!-- Generator: Adobe Illustrator 24.2.3, SVG Export Plug-In . SVG Version: 6.00 Build 0)  -->
<svg version="1.1" id="Layer_1" xmlns="http://www.w3.org/2000/svg" xmlns:xlink="http://www.w3.org/1999/xlink" x="0px" y="0px"
	 viewBox="0 0 24 24" style="enable-background:new 0 0 24 24;" xml:space="preserve">
<style type="text/css">
	.st0{enable-background:new    ;}
</style>
<g class="st0">
	<path d="M3.5,8.7c1.7,0,2.6,1.6,2.6,1.6S7,9.1,8.9,9.1c2.1,0,3.2,2.1,3.2,2.1c0,0,1.4-1.3,3.4-1.3h0.1c2.3,0,4.6,1.7,4.9,4.7V24
		H10.4v-4.6H5.1v-2.3H0.4v-4.4C0.4,9.6,1.9,8.7,3.5,8.7z M3.3,3.8c1.2,0,2.2,0.9,2.3,2.2v0.1c0,1.1-0.9,2.1-2.1,2.1
		c-1.2,0-2.2-0.9-2.2-2C1.3,5,2.1,3.8,3.3,3.8z M8.8,3.2c1.5,0,2.6,1.4,2.6,2.7c0,1.4-1.3,2.7-2.7,2.7c-1.4,0-2.7-1.2-2.7-2.7V5.8
		C6.1,4.3,7.4,3.2,8.8,3.2z M15.5,1.8c1.9,0,3.6,1.7,3.6,3.7c0,2-1.9,3.7-3.7,3.7c-2,0-3.7-1.7-3.7-3.7C11.8,3.5,13.5,1.8,15.5,1.8z
		"/>
</g>
</svg>
