<?xml version="1.0" encoding="utf-8"?>
<!-- Generator: Adobe Illustrator 24.2.3, SVG Export Plug-In . SVG Version: 6.00 Build 0)  -->
<svg version="1.1" id="Layer_1" xmlns="http://www.w3.org/2000/svg" xmlns:xlink="http://www.w3.org/1999/xlink" x="0px" y="0px"
	 viewBox="0 0 24 24" style="enable-background:new 0 0 24 24;" xml:space="preserve">
<style type="text/css">
	.st0{enable-background:new    ;}
</style>
<g class="st0">
	<path d="M1.2,10.6C0.7,9.7,0.4,8.8,0.4,7.8c0-1.5,0.6-3.1,1.8-4.3c1.1-1.1,2.6-1.7,4-1.7c1,0,2,0.3,2.9,0.8c0.6-0.2,1.3-0.2,2-0.2
		c2.4,0,5.2,1,7.3,3.1c2.2,2.3,2.7,5.1,2.7,7.2c0,0.7-0.1,1.3-0.1,1.8c0.5,0.9,0.7,1.9,0.7,2.8c0,1.9-1,3.8-2.2,4.7
		c-1.2,1-2.5,1.3-3.6,1.3c-1.1,0-2.1-0.3-2.8-0.8c-0.7,0.1-1.3,0.2-2,0.2c-3.5,0-6.3-1.8-8-4c-1.6-2-2.1-4.2-2.1-6.1
		C1,11.8,1.1,11.1,1.2,10.6z M7.3,14.8L7.3,14.8c-0.7,0-1.3,0.5-1.3,1.1V16c0.1,1.7,2.3,3.1,5.5,3.1c2.7,0,5.1-1.2,5.1-3.7v-0.1
		c0-1.8-0.7-2.8-2.8-3.5c-2-0.6-4.9-0.7-4.9-2v0c0-1.2,1.3-1.4,1.9-1.4h0.2c0.7,0,1.4,0.1,1.9,0.5c0.7,0.5,0.8,1.2,1.8,1.3h0.1
		c0.7,0,1.3-0.5,1.3-1.1c0-0.1,0-0.1,0-0.2C15.8,7.6,14.4,6.1,11,6h-0.1C8.5,6,6,7.5,6,9.7c0,3.1,2.5,3.4,4.2,3.9
		c0.7,0.2,1.5,0.3,2.6,0.7c0.6,0.1,0.8,0.6,0.8,1.1c0,0.8-0.6,1.6-2,1.6c-0.1,0-0.2,0-0.3,0c-0.8-0.1-1.3,0.1-2-0.5
		C8.6,15.7,8.3,14.8,7.3,14.8z"/>
</g>
</svg>
